<svg width="11" height="10" viewBox="0 0 11 10" fill="none" xmlns="http://www.w3.org/2000/svg">
<path d="M0.785715 4.17033H8.64286L6.05786 1.42669C5.98421 1.34916 5.92576 1.25693 5.88587 1.15531C5.84598 1.05368 5.82544 0.944684 5.82544 0.834595C5.82544 0.724506 5.84598 0.615506 5.88587 0.513883C5.92576 0.412261 5.98421 0.320027 6.05786 0.242502C6.20507 0.0871807 6.40421 0 6.61179 0C6.81936 0 7.0185 0.0871807 7.16571 0.242502L10.5364 3.82842C10.8315 4.13977 10.9982 4.56263 11 5.00427C10.9962 5.443 10.8296 5.86247 10.5364 6.17177L7.16571 9.75769C7.09246 9.8349 7.00559 9.89603 6.91007 9.93761C6.81455 9.97918 6.71225 10.0004 6.60901 9.99999C6.50577 9.99961 6.40361 9.97764 6.30837 9.93535C6.21313 9.89306 6.12667 9.83127 6.05393 9.75352C5.98119 9.67576 5.92358 9.58356 5.88441 9.48218C5.84524 9.3808 5.82527 9.27222 5.82563 9.16265C5.826 9.05307 5.84669 8.94465 5.88654 8.84356C5.92638 8.74248 5.9846 8.65071 6.05786 8.5735L8.64286 5.8382H0.785715C0.57733 5.8382 0.37748 5.75034 0.23013 5.59395C0.08278 5.43755 2.38419e-07 5.22544 2.38419e-07 5.00427C2.38419e-07 4.78309 0.08278 4.57098 0.23013 4.41459C0.37748 4.25819 0.57733 4.17033 0.785715 4.17033Z" fill="white"/>
</svg>
