<svg width="15" height="15" viewBox="0 0 15 15" fill="none" xmlns="http://www.w3.org/2000/svg">
<path d="M0 3.47134C0 1.56118 1.54849 0.0126953 3.45864 0.0126953H5.84675C6.43799 0.0126953 6.91729 0.491989 6.91729 1.08323V5.85945C6.91729 6.45069 6.43799 6.92998 5.84675 6.92998H1.07053C0.479294 6.92998 0 6.45069 0 5.85945V3.47134Z" fill="white"/>
<rect y="8.08301" width="6.91729" height="6.91729" rx="3.45864" fill="white"/>
<path d="M11.5414 0.012762C13.4515 0.0197366 14.9943 1.57387 14.9874 3.48401C14.9804 5.39415 13.4263 6.93698 11.5161 6.93L8.0575 6.91737L8.07013 3.45875C8.07711 1.54861 9.63124 0.00578737 11.5414 0.012762Z" fill="white"/>
<path d="M8.06934 9.15354C8.06934 8.5623 8.54863 8.08301 9.13987 8.08301H11.775C13.5487 8.08301 14.9866 9.52089 14.9866 11.2946V11.7887C14.9866 13.5624 13.5487 15.0003 11.775 15.0003H11.2809C9.50722 15.0003 8.06934 13.5624 8.06934 11.7887V9.15354Z" fill="white"/>
</svg>
