<svg xmlns="http://www.w3.org/2000/svg" width="16" height="16" viewBox="0 0 16 16">
  <g id="Group_79725" data-name="Group 79725" transform="translate(1945 -38)">
    <rect id="Rectangle_15255" data-name="Rectangle 15255" width="16" height="16" transform="translate(-1945 38)" fill="rgba(181,41,41,0)"/>
    <g id="Group_79724" data-name="Group 79724" transform="translate(24.3 2.3)">
      <g id="pencil_1_" data-name="pencil (1)" transform="translate(-1969 36)">
        <path id="Path_256011" data-name="Path 256011" d="M.788,14.744A2.688,2.688,0,0,0,0,16.645v1.38H1.38a2.688,2.688,0,0,0,1.9-.787l8.968-8.968L9.756,5.776Z" transform="translate(0 -2.624)" fill="#fff"/>
        <path id="Path_256012" data-name="Path 256012" d="M20.779.6a1.762,1.762,0,0,0-2.494,0L15.929,2.96l2.493,2.493L20.779,3.1a1.762,1.762,0,0,0,0-2.494Z" transform="translate(-5.895 -0.086)" fill="#fff"/>
      </g>
    </g>
  </g>
</svg>
