<svg width="17" height="15" viewBox="0 0 17 15" fill="none" xmlns="http://www.w3.org/2000/svg">
<path d="M13.7687 0H2.96128C1.32837 0 0 1.32544 0 2.95466V14.0046C0 14.3959 0.237422 14.7533 0.605146 14.915C0.735193 14.9722 0.872755 15 1.00943 15C1.25398 15 1.49522 14.9108 1.68208 14.7408C3.03681 13.515 4.79009 12.84 6.61954 12.84H6.61992L13.7706 12.8405C15.3831 12.8405 16.6951 11.5258 16.6951 9.90969V2.91976C16.6949 1.30977 15.3822 0 13.7687 0Z" fill="#F5F5F5"/>
<path d="M4.16753 4.53217H5.74695C6.01711 4.53217 6.23606 4.31322 6.23606 4.04306C6.23606 3.77304 6.01711 3.55396 5.74695 3.55396H4.16753C3.48112 3.55396 2.92285 4.11236 2.92285 4.79864V8.76667C2.92285 9.03682 3.1418 9.25578 3.41196 9.25578C3.68199 9.25578 3.90107 9.03682 3.90107 8.76667V7.57293H5.74695C6.01711 7.57293 6.23606 7.35398 6.23606 7.08382C6.23606 6.81367 6.01711 6.59471 5.74695 6.59471H3.90107V4.79864C3.90107 4.65178 4.02055 4.53217 4.16753 4.53217Z" fill="#2F4050"/>
<path d="M8.35387 3.55396C7.44048 3.55396 6.69727 4.29717 6.69727 5.21069V8.76679C6.69727 9.03682 6.91622 9.2559 7.18638 9.2559C7.45653 9.2559 7.67549 9.03682 7.67549 8.76679V7.54618H9.03225V8.76679C9.03225 9.03682 9.25134 9.2559 9.52136 9.2559C9.79152 9.2559 10.0105 9.03682 10.0105 8.76679V5.21069C10.0105 4.29717 9.26738 3.55396 8.35387 3.55396ZM7.67549 6.56797V5.21069C7.67549 4.83659 7.97978 4.53217 8.35387 4.53217C8.72796 4.53217 9.03238 4.83659 9.03238 5.21069V6.56797H7.67549Z" fill="#2F4050"/>
<path d="M14.3512 8.27768H13.9637V5.21069C13.9637 4.29717 13.2206 3.55396 12.3071 3.55396C11.3936 3.55396 10.6504 4.29717 10.6504 5.21069V7.59917C10.6504 8.51269 11.3936 9.2559 12.3071 9.2559H14.3512C14.6212 9.2559 14.8403 9.03682 14.8403 8.76679C14.8403 8.49664 14.6212 8.27768 14.3512 8.27768ZM11.6287 7.59917V5.21069C11.6287 4.83659 11.933 4.53217 12.3071 4.53217C12.6812 4.53217 12.9855 4.83659 12.9855 5.21069V8.27768H12.3071C11.933 8.27768 11.6287 7.97326 11.6287 7.59917Z" fill="#2F4050"/>
</svg>
