<svg xmlns="http://www.w3.org/2000/svg" width="14.055" height="13.469" viewBox="0 0 14.055 13.469">
  <g id="Group_95" data-name="Group 95" transform="translate(-72.015 -410)">
    <path id="star" d="M14.018,5.582a.746.746,0,0,0-.643-.514L9.319,4.7,7.715.945a.747.747,0,0,0-1.374,0L4.737,4.7.679,5.068A.748.748,0,0,0,.255,6.376L3.322,9.065l-.9,3.983a.746.746,0,0,0,1.111.807l3.5-2.091,3.5,2.091a.747.747,0,0,0,1.112-.807l-.9-3.983L13.8,6.376A.747.747,0,0,0,14.018,5.582Zm0,0" transform="translate(72.015 409.508)" fill="#ccc"/>
  </g>
</svg>
