<svg width="13" height="16" viewBox="0 0 13 16" fill="none" xmlns="http://www.w3.org/2000/svg">
<path d="M6.49665 0C5.13472 0 3.82857 0.541025 2.86554 1.50406C1.90251 2.46709 1.36148 3.77324 1.36148 5.13517V9.1406L0.224897 10.8523C0.0886649 11.0624 0.0113926 11.3052 0.00116601 11.5553C-0.00906059 11.8055 0.0481345 12.0538 0.166766 12.2742C0.285398 12.4947 0.461105 12.6792 0.6755 12.8085C0.889895 12.9378 1.1351 13.0071 1.38545 13.0091H11.6079C11.8598 13.0083 12.1069 12.9393 12.3228 12.8095C12.5388 12.6797 12.7156 12.4939 12.8345 12.2718C12.9535 12.0496 13.0102 11.7995 12.9985 11.5478C12.9869 11.2961 12.9074 11.0522 12.7684 10.8421L11.6318 9.1406V5.13517C11.6318 3.77324 11.0908 2.46709 10.1278 1.50406C9.16473 0.541025 7.85858 0 6.49665 0Z" fill="white"/>
<path d="M6.49675 15.0632C6.92112 15.0627 7.33492 14.9308 7.68128 14.6856C8.02763 14.4404 8.28954 14.0939 8.43099 13.6938H4.5625C4.70396 14.0939 4.96586 14.4404 5.31222 14.6856C5.65857 14.9308 6.07238 15.0627 6.49675 15.0632Z" fill="white"/>
</svg>
