<svg width="16" height="16" viewBox="0 0 16 16" fill="none" xmlns="http://www.w3.org/2000/svg">
<path fill-rule="evenodd" clip-rule="evenodd" d="M11.5898 4.43555H3.02692C2.65593 4.43555 1.41596 4.58529 1.06012 6.50666L0.410688 11.554C0.199539 12.9698 0.362738 13.9945 0.896919 14.6144C1.42437 15.2269 2.36823 15.5246 3.7815 15.5246H10.8041C11.6857 15.5246 12.8895 15.3488 13.6163 14.5093C14.1934 13.8439 14.3919 12.8529 14.2069 11.5633L13.5516 6.47217C13.2723 5.21789 12.5353 4.43555 11.5898 4.43555Z" fill="white"/>
<path fill-rule="evenodd" clip-rule="evenodd" d="M7.54547 0C9.56196 0 11.2278 1.53648 11.4331 3.50158L11.4905 3.50225C12.6091 3.50225 13.9692 4.24516 14.4282 6.32887L15.0368 11.0401C15.2552 12.5607 14.9821 13.7804 14.2237 14.6552C13.4692 15.5254 12.275 15.9859 10.7699 15.9859H4.32982C2.67659 15.9859 1.52481 15.5809 0.808123 14.7485C0.0883554 13.9138 -0.152339 12.6617 0.0929841 11.0278L0.691634 6.37901C1.08508 4.24748 2.52384 3.50225 3.63782 3.50225C3.73399 2.61545 4.13386 1.7718 4.76824 1.13944C5.49726 0.415043 6.50247 0 7.52927 0H7.54547ZM11.4905 4.65944H3.63782C3.29761 4.65944 2.16048 4.79675 1.83416 6.55876L1.2386 11.1875C1.04496 12.4859 1.19462 13.4255 1.6845 13.994C2.1682 14.5557 3.03377 14.8288 4.32982 14.8288H10.7699C11.5784 14.8288 12.6824 14.6675 13.3489 13.8976C13.8781 13.2874 14.0602 12.3786 13.8905 11.196L13.2895 6.52713C13.0334 5.37689 12.3576 4.65944 11.4905 4.65944ZM9.79543 6.80724C10.1148 6.80724 10.3918 7.06645 10.3918 7.38584C10.3918 7.70522 10.1503 7.96443 9.83091 7.96443H9.79543C9.47604 7.96443 9.21683 7.70522 9.21683 7.38584C9.21683 7.06645 9.47604 6.80724 9.79543 6.80724ZM5.29776 6.80724C5.61715 6.80724 5.8941 7.06645 5.8941 7.38584C5.8941 7.70522 5.65186 7.96443 5.33248 7.96443H5.29776C4.97838 7.96443 4.71917 7.70522 4.71917 7.38584C4.71917 7.06645 4.97838 6.80724 5.29776 6.80724ZM7.54316 1.15718H7.53159C6.80565 1.15718 6.09823 1.44956 5.58521 1.9595C5.16731 2.37552 4.894 2.92242 4.80558 3.50189L10.2669 3.50211C10.0687 2.17657 8.92245 1.15718 7.54316 1.15718Z" fill="white"/>
</svg>
