<svg width="14" height="17" viewBox="0 0 14 17" fill="none" xmlns="http://www.w3.org/2000/svg">
<path d="M13.2812 2.125H11.6875V0.53125C11.6875 0.238 11.4495 0 11.1563 0H1.59375C0.715062 0 0 0.715062 0 1.59375V14.875C0 16.0469 0.953062 17 2.125 17H13.2812C13.5745 17 13.8125 16.762 13.8125 16.4688V2.65625C13.8125 2.363 13.5745 2.125 13.2812 2.125ZM10.0938 13.8125H3.71875C3.4255 13.8125 3.1875 13.5745 3.1875 13.2812C3.1875 12.988 3.4255 12.75 3.71875 12.75H10.0938C10.387 12.75 10.625 12.988 10.625 13.2812C10.625 13.5745 10.387 13.8125 10.0938 13.8125ZM3.1875 6.375C3.1875 5.18288 3.88769 4.25 4.78125 4.25C5.67481 4.25 6.375 5.18288 6.375 6.375C6.375 7.31531 5.93619 8.08775 5.3125 8.37356V11.1562C5.3125 11.4495 5.0745 11.6875 4.78125 11.6875C4.488 11.6875 4.25 11.4495 4.25 11.1562V8.37356C3.62631 8.08775 3.1875 7.31531 3.1875 6.375ZM10.625 9.03125C10.625 9.3245 10.387 9.5625 10.0938 9.5625H8.5V11.1562C8.5 11.4495 8.262 11.6875 7.96875 11.6875C7.6755 11.6875 7.4375 11.4495 7.4375 11.1562V4.78125C7.4375 4.488 7.6755 4.25 7.96875 4.25C9.43394 4.25 10.625 5.44212 10.625 6.90625V9.03125ZM10.625 2.125H1.59375C1.3005 2.125 1.0625 1.887 1.0625 1.59375C1.0625 1.3005 1.3005 1.0625 1.59375 1.0625H10.625V2.125Z" fill="white"/>
</svg>
