<svg width="15" height="15" viewBox="0 0 15 15" fill="none" xmlns="http://www.w3.org/2000/svg">
<rect width="15" height="15" rx="3" fill="white"/>
<path d="M11.5558 13.8465H3.65814C3.29485 13.8465 3 13.5517 3 13.1884C3 12.8251 3.29485 12.5303 3.65814 12.5303H11.5558C11.9191 12.5303 12.214 12.8251 12.214 13.1884C12.214 13.5517 11.9191 13.8465 11.5558 13.8465ZM3 4.63256C3 3.1557 3.86743 2 4.97442 2C6.08142 2 6.94885 3.1557 6.94885 4.63256C6.94885 5.79747 6.40522 6.75441 5.63256 7.10849V10.5558C5.63256 10.9191 5.33772 11.214 4.97442 11.214C4.61113 11.214 4.31628 10.9191 4.31628 10.5558V7.10849C3.54362 6.75441 3 5.79747 3 4.63256ZM12.214 7.92327C12.214 8.28656 11.9191 8.58141 11.5558 8.58141H9.58141V10.5558C9.58141 10.9191 9.28656 11.214 8.92327 11.214C8.55998 11.214 8.26513 10.9191 8.26513 10.5558V2.65814C8.26513 2.29485 8.55998 2 8.92327 2C10.7384 2 12.214 3.47687 12.214 5.29071V7.92327Z" fill="#2F4050"/>
</svg>
