<svg width="14" height="14" viewBox="0 0 14 14" fill="none" xmlns="http://www.w3.org/2000/svg">
<path d="M8.04268 7.00051L13.7852 1.25796C14.073 0.970172 14.073 0.503599 13.7852 0.21584C13.4974 -0.0719466 13.0308 -0.0719466 12.7431 0.21584L7.0005 5.95839L1.25796 0.21584C0.970172 -0.0719466 0.503599 -0.0719466 0.21584 0.21584C-0.0719192 0.503626 -0.0719466 0.970199 0.21584 1.25796L5.95839 7.00051L0.21584 12.7431C-0.0719466 13.0308 -0.0719466 13.4974 0.21584 13.7852C0.503626 14.073 0.970199 14.0729 1.25796 13.7852L7.0005 8.04262L12.743 13.7852C13.0308 14.073 13.4974 14.0729 13.7852 13.7852C14.0729 13.4974 14.0729 13.0308 13.7852 12.7431L8.04268 7.00051Z" fill="white"/>
</svg>
