<svg width="15" height="16" viewBox="0 0 15 16" fill="none" xmlns="http://www.w3.org/2000/svg">
<path fill-rule="evenodd" clip-rule="evenodd" d="M13.8082 4.7373L13.3485 3.93969C12.9597 3.26479 12.0979 3.03196 11.4221 3.41921C11.1004 3.60872 10.7165 3.66249 10.3551 3.56866C9.99376 3.47482 9.68454 3.24109 9.49567 2.91901C9.37417 2.71429 9.30888 2.48112 9.30641 2.24307C9.31737 1.86142 9.17338 1.49158 8.90725 1.21781C8.64111 0.944032 8.2755 0.789638 7.89368 0.789795H6.96764C6.59359 0.789795 6.23495 0.938846 5.97108 1.20398C5.70722 1.46911 5.55989 1.82846 5.56168 2.20252C5.5506 2.97481 4.92134 3.59504 4.14896 3.59496C3.91091 3.59249 3.67774 3.5272 3.47302 3.40569C2.79719 3.01844 1.93544 3.25127 1.54658 3.92617L1.05314 4.7373C0.664758 5.41136 0.894414 6.27257 1.56686 6.66374C2.00396 6.91609 2.27323 7.38247 2.27323 7.88719C2.27323 8.39191 2.00396 8.85829 1.56686 9.11065C0.895268 9.49918 0.665361 10.3583 1.05314 11.0303L1.51955 11.8347C1.70174 12.1635 2.00743 12.406 2.36898 12.5088C2.73053 12.6116 3.11812 12.566 3.44598 12.3822C3.76829 12.1941 4.15238 12.1426 4.51286 12.2391C4.87334 12.3356 5.18036 12.572 5.36566 12.8959C5.48716 13.1006 5.55245 13.3338 5.55492 13.5719C5.55492 14.3521 6.18742 14.9846 6.96764 14.9846H7.89368C8.67128 14.9846 9.30269 14.3562 9.30641 13.5786C9.3046 13.2034 9.45286 12.843 9.71819 12.5777C9.98352 12.3124 10.3439 12.1641 10.7191 12.1659C10.9566 12.1723 11.1888 12.2373 11.3951 12.3552C12.0691 12.7436 12.9303 12.5139 13.3215 11.8415L13.8082 11.0303C13.9966 10.707 14.0483 10.3219 13.9518 9.9603C13.8554 9.59872 13.6188 9.2905 13.2945 9.10389C12.9701 8.91728 12.7335 8.60906 12.6371 8.24748C12.5407 7.8859 12.5924 7.5008 12.7808 7.17745C12.9033 6.96357 13.0806 6.78624 13.2945 6.66374C13.9629 6.27278 14.192 5.4166 13.8082 4.74406V4.7373Z" fill="white" stroke="white" stroke-width="1.56938" stroke-linecap="round" stroke-linejoin="round"/>
<path d="M7.43402 9.83386C8.50916 9.83386 9.38073 8.96229 9.38073 7.88714C9.38073 6.812 8.50916 5.94043 7.43402 5.94043C6.35888 5.94043 5.4873 6.812 5.4873 7.88714C5.4873 8.96229 6.35888 9.83386 7.43402 9.83386Z" fill="#2F4050" stroke="#2F4050" stroke-width="1.56938" stroke-linecap="round" stroke-linejoin="round"/>
</svg>
