<svg width="17" height="17" viewBox="0 0 17 17" fill="none" xmlns="http://www.w3.org/2000/svg">
<path d="M8.5 0C3.808 0 0 3.808 0 8.5C0 13.192 3.808 17 8.5 17C13.192 17 17 13.192 17 8.5C17 3.808 13.192 0 8.5 0ZM14.841 6.052L12.478 7.0295C12.0445 5.8735 11.135 4.9555 9.9705 4.5305L10.948 2.1675C12.733 2.8475 14.1525 4.267 14.841 6.052ZM8.5 11.05C7.089 11.05 5.95 9.911 5.95 8.5C5.95 7.089 7.089 5.95 8.5 5.95C9.911 5.95 11.05 7.089 11.05 8.5C11.05 9.911 9.911 11.05 8.5 11.05ZM6.0605 2.159L7.055 4.522C5.882 4.947 4.9555 5.8735 4.522 7.0465L2.159 6.0605C2.8475 4.267 4.267 2.8475 6.0605 2.159ZM2.159 10.9395L4.522 9.962C4.9555 11.135 5.8735 12.053 7.0465 12.478L6.052 14.841C4.267 14.1525 2.8475 12.733 2.159 10.9395ZM10.948 14.841L9.9705 12.478C11.135 12.0445 12.053 11.1265 12.478 9.9535L14.841 10.948C14.1525 12.733 12.733 14.1525 10.948 14.841Z" fill="white"/>
</svg>
